Coordinates
version=1
nRows=17
nColumns=33
inDegrees=yes

Units are S.I. units (second, meters, Newtons, ...)
Angles are in degrees.

endheader
time	ground_thorax_rot_x	ground_thorax_rot_y	ground_thorax_rot_z	ground_thorax_tx	ground_thorax_ty	ground_thorax_tz	clav_prot_r	clav_elev_r	scapula_abduction_r	scapula_elevation_r	scapula_upward_rot_r	scapula_winging_r	shoulder_elv_r	plane_of_elev_r	axial_rot_r	elbow_flexion_r	pro_sup_r	wrist_flex_r	wrist_dev_r	clav_prot_l	clav_elev_l	scapula_abduction_l	scapula_elevation_l	scapula_upward_rot_l	scapula_winging_l	shoulder_elv_l	plane_of_elev_l	axial_rot_l	elbow_flexion_l	pro_sup_l	wrist_flex_l	wrist_dev_l
      9.60000000	    -40.52420093	     -6.12689307	      6.37593536	   -168.33849150	    880.08492027	     -9.72474979	      2.79112409	    -45.00000000	     41.03664993	    -45.00000000	      3.75186863	   2050.14819194	    791.12961362	     22.69694667	   -179.99999979	   1444.42317000	    -56.45532043	     23.36030154	      6.84784472	     15.85364036	     38.68653849	    -39.64404901	    -45.00000000	    -45.00000000	  -2074.14464737	  -3526.90548955	     20.54488910	    -44.42653341	   1453.91061352	   -304.42104679	      4.03803154	    -21.37992470
      9.61000000	    -40.50957968	     -5.75580704	      5.90279468	   -166.13297800	    882.95514443	     -9.75549101	      2.48663092	    -45.00000000	     41.78953743	    -45.00000000	      6.72301030	   2050.22014484	    791.86275321	     22.40654629	   -179.99999979	   1444.56995508	    -55.84159002	     23.32147012	      6.95706128	     16.12853649	     38.72783898	    -39.96988452	    -45.00000000	    -45.00000000	  -2074.06293562	  -3526.60408016	     20.69420381	    -43.68918929	   1454.10501373	   -304.09391008	      3.76498190	    -21.17658871
      9.62000000	    -40.53941150	     -5.36450906	      5.50646167	   -163.82175561	    885.72307173	     -9.77825179	      2.25176600	    -45.00000000	     42.09428684	    -45.00000000	      8.71843691	   2050.23509233	    792.14732461	     22.39110387	   -179.99999979	   1444.47366309	    -55.19695922	     23.48017559	      6.81649500	     16.13174434	     38.67979931	    -40.40981590	    -45.00000000	    -45.00000000	  -2073.90838734	  -3526.42057169	     20.91886072	    -42.73244478	   1454.19672489	   -303.86862820	      3.65149026	    -21.10938130
      9.63000000	    -40.56086861	     -5.32494610	      5.42747539	   -161.40725915	    888.34857792	     -9.79246028	      2.24829574	    -45.00000000	     42.32605790	    -45.00000000	      9.00717027	   2050.38370149	    792.15133274	     22.68393048	   -179.99999979	   1444.37945746	    -54.94510123	     23.67300692	      6.61139933	     16.17922398	     38.71652697	    -40.75068044	    -45.00000000	    -45.00000000	  -2073.53381027	  -3526.37432467	     21.22093855	    -42.15365158	   1454.16407864	   -303.81831425	      3.65924411	    -21.12624918
      9.64000000	    -40.65796042	     -4.92742354	      5.01943136	   -158.88966801	    890.79102617	     -9.79487994	      1.93968561	    -45.00000000	     42.69299150	    -45.00000000	     11.47639735	   2050.55217293	    792.55808782	     22.38381124	   -179.99999979	   1444.37006679	    -54.77861843	     23.69607298	      6.65567330	     16.23397444	     38.77325144	    -41.03014060	    -45.00000000	    -44.77135641	  -2073.49937372	  -3525.96878335	     21.22353660	    -41.27766735	   1454.20139352	   -303.97494421	      3.54706593	    -21.03906011
      9.65000000	    -40.66004362	     -4.64114764	      4.80605102	   -156.25228834	    893.02137536	     -9.78008891	      1.99815240	    -45.00000000	     42.76392014	    -45.00000000	     11.52910416	   2050.62083625	    792.41267795	     22.89551255	   -179.99999979	   1444.23991316	    -54.84931092	     24.06085990	      6.33132681	     15.75345523	     39.04070388	    -41.35620895	    -45.00000000	    -43.84242962	  -2073.05627450	  -3526.18085112	     21.49948557	    -41.37877093	   1454.16406699	   -304.16276505	      3.72771181	    -21.21792641
      9.66000000	    -40.71594163	     -4.26150824	      4.41222927	   -153.50079608	    894.99332272	     -9.74207526	      1.82222911	    -45.00000000	     42.81104057	    -45.00000000	     12.52510264	   2051.00908584	    792.43965691	     22.90424646	   -179.99999979	   1444.11118951	    -55.05825902	     24.27733177	      6.21863030	     15.33272202	     39.06727309	    -41.52792920	    -45.00000000	    -42.90909406	  -2073.04824839	  -3525.94319272	     21.38123384	    -41.00204051	   1454.33746657	   -304.49718126	      3.74618272	    -21.30841249
      9.67000000	    -40.78292422	     -4.12983875	      4.18706999	   -150.62141598	    896.68140331	     -9.67513173	      1.51443585	    -45.00000000	     43.55406481	    -45.00000000	     14.83420274	   2050.88953857	    792.85173117	     22.79722734	   -179.99999979	   1444.13699002	    -55.44975259	     24.17138450	      6.37407248	     15.89214371	     39.34511917	    -41.76146566	    -45.00000000	    -42.43968170	  -2072.81221455	  -3526.05677942	     21.59964516	    -40.34463992	   1454.10263725	   -305.03233703	      3.70120901	    -21.14734365
      9.68000000	    -40.90346745	     -3.53960637	      3.60629109	   -147.61217651	    898.05724401	     -9.57507110	      1.06084256	    -45.00000000	     44.12691453	    -45.00000000	     17.92727317	   2050.82867132	    793.28194409	     22.56005191	   -179.99999979	   1444.21609149	    -56.12661504	     24.06557421	      6.65392237	     16.29934407	     39.64796279	    -42.13937335	    -45.00000000	    -41.58021018	  -2072.84536531	  -3525.84870624	     21.50235869	    -39.70694176	   1454.18724477	   -306.02363016	      3.72843776	    -21.24444270
      9.69000000	    -40.99231512	     -3.25054792	      3.32229783	   -144.46125309	    899.10449784	     -9.43927276	      0.86251646	    -45.00000000	     44.46197612	    -45.00000000	     19.46474261	   2050.86636422	    793.35460276	     22.55737500	   -179.99999979	   1444.15696673	    -56.97259871	     24.14057882	      6.73630803	     16.25295816	     39.81953482	    -42.37109463	    -45.00000000	    -40.68317014	  -2072.70700783	  -3525.86960824	     21.56849995	    -39.38783394	   1454.07512926	   -307.21515738	      3.84961470	    -21.28662280
      9.70000000	    -41.08807873	     -3.08300655	      3.12034672	   -141.17462741	    899.80403107	     -9.26796895	      0.68555107	    -45.00000000	     44.83981719	    -45.00000000	     20.78790491	   2050.88695823	    793.37443692	     22.58050047	   -179.99999979	   1444.07629413	    -58.03494777	     24.20288969	      6.82850614	     16.19066690	     40.09402573	    -42.58085095	    -45.00000000	    -39.78498630	  -2072.52709439	  -3526.00384262	     21.65842117	    -39.09050010	   1453.90236855	   -308.52602304	      4.03730520	    -21.37565155
      9.71000000	    -41.15384578	     -2.88142693	      2.90408391	   -137.75759408	    900.14517302	     -9.06378684	      0.81837514	    -45.00000000	     45.00000000	    -45.00000000	     21.21784856	   2050.96366994	    793.05793550	     22.87864721	   -179.99999979	   1443.97950745	    -59.17076413	     24.48615666	      6.77144826	     15.53231314	     40.25709030	    -42.77848826	    -45.00000000	    -38.68951482	  -2072.31034863	  -3526.29548417	     21.80734521	    -38.86733508	   1453.66909459	   -309.73626937	      4.36830714	    -21.54741270
      9.72000000	    -41.28267749	     -2.26907972	      2.47378987	   -134.20848107	    900.12136515	     -8.83124476	     -0.12332612	    -45.00000000	     45.00000000	    -45.00000000	     23.99163778	   2051.16593538	    793.35102285	     22.48077556	   -179.99999979	   1444.09426230	    -61.25841650	     24.20757393	      7.42097304	     16.31583830	     40.52069550	    -43.31180605	    -45.00000000	    -37.97307258	  -2072.51851663	  -3526.14270230	     21.67018154	    -38.30662097	   1453.59681066	   -312.02739721	      4.50670819	    -21.60154115
      9.73000000	    -41.34616554	     -2.06343756	      2.37410669	   -130.53902193	    899.73186592	     -8.57678363	     -0.46370280	    -45.00000000	     45.00000000	    -45.00000000	     25.04667287	   2051.31221003	    793.25191935	     22.46528202	   -179.99999979	   1444.08331647	    -63.55695461	     24.17445791	      7.80332686	     16.40930522	     40.75276894	    -43.62854606	    -45.00000000	    -37.24059773	  -2072.53140141	  -3526.32730933	     21.74315225	    -37.81086109	   1453.30102018	   -314.63579677	      4.89394161	    -21.74119902
      9.74000000	    -41.38797720	     -1.62814006	      2.03792974	   -126.75036502	    898.97825600	     -8.30721725	     -0.96455600	    -45.00000000	     45.00000000	    -45.00000000	     26.50934938	   2051.35642060	    793.11818837	     22.52239120	   -179.99999979	   1444.16825792	    -66.44773837	     24.15917143	      8.33150214	     16.43903438	     40.86335959	    -43.94662149	    -45.00000000	    -36.37678232	  -2072.68255891	  -3526.45052976	     21.77395548	    -37.09921866	   1453.08252652	   -318.14503751	      5.46346276	    -21.97186997
      9.75000000	    -41.48797217	     -1.51495393	      2.04283975	   -122.84836500	    897.86808578	     -8.02888277	     -1.24769747	    -45.00000000	     45.00000000	    -45.00000000	     27.31046551	   2051.48949534	    792.88606849	     22.39913270	   -179.99999979	   1444.13315483	    -69.29844113	     23.95668890	      8.81769146	     16.62428019	     41.15576661	    -44.31389346	    -45.00000000	    -35.82456107	  -2072.70539915	  -3526.62973086	     21.84709386	    -36.82588171	   1452.66128193	   -321.76456398	      6.02966872	    -22.09427172
      9.76000000	    -41.53192839	     -1.29416192	      1.95770320	   -118.83616605	    896.41193487	     -7.74695150	     -1.58712348	    -45.00000000	     45.00000000	    -45.00000000	     28.35332137	   2051.50960194	    792.67699485	     22.35230161	   -179.99999979	   1444.16427625	    -72.19804081	     23.74533014	      9.30866732	     16.87121159	     41.43789442	    -44.68062612	    -45.00000000	    -35.10768565	  -2072.75007471	  -3526.94957622	     21.94938658	    -36.42627357	   1452.29351539	   -325.68125582	      6.70005715	    -22.22136131
